<svg width="137" height="81" viewBox="0 0 137 81" fill="none" xmlns="http://www.w3.org/2000/svg">
<path d="M44.8934 23.2931C45.2748 23.497 45.7097 23.6134 46.1717 23.6134C46.8026 23.6134 47.3829 23.3951 47.8457 23.0333C48.096 23.315 48.9612 24.2819 49.926 25.2789C47.7319 25.2835 45.5062 25.3212 43.2917 25.3824C44.0455 24.4344 44.6861 23.5741 44.8934 23.2931ZM48.2723 20.8759C48.2723 22.0369 47.3294 22.9811 46.1717 22.9811C45.0132 22.9811 44.0711 22.0369 44.0711 20.8759C44.0711 19.7157 45.0132 18.7708 46.1717 18.7708C47.3294 18.7708 48.2723 19.7157 48.2723 20.8759ZM70.7333 37.0089C68.6236 37.2113 66.639 36.7105 64.9786 35.582C64.8738 35.5133 64.7736 35.4347 64.6703 35.3622L64.5166 35.2519L64.3681 35.1303L64.0696 34.8909L63.7824 34.6303C63.4078 34.2843 63.0679 33.9338 62.7747 33.538C62.48 33.146 62.2154 32.7313 61.9969 32.2834C61.7805 31.8347 61.6064 31.3558 61.4693 30.8535C61.1919 29.8473 61.0924 28.74 61.1143 27.5926C61.1346 26.4422 61.2755 25.2585 61.5069 24.0341C61.0751 24.4918 60.7201 25.0153 60.4035 25.5622C58.1122 25.4156 55.6822 25.3326 53.1828 25.2978C50.9895 23.3898 48.8859 21.9199 48.7336 21.8141C48.8406 21.521 48.9024 21.206 48.9024 20.8759C48.9024 20.3457 48.7479 19.8509 48.4864 19.431C49.1406 18.8705 51.193 17.0705 53.1037 14.9819C55.4146 12.4552 55.8344 11.1923 55.2043 10.7708C54.5742 10.35 52.4736 12.4552 51.0031 13.9289C49.727 15.2077 47.8193 17.7541 47.337 18.4044C46.9827 18.2367 46.5885 18.1393 46.1717 18.1393C45.6358 18.1393 45.1376 18.2972 44.7155 18.5653C44.1216 17.9187 42.0104 15.6489 40.6334 14.5309C39.0166 13.2196 36.708 11.3464 36.1253 11.8305C35.5427 12.3155 36.0922 13.5278 38.6533 15.7984C40.757 17.6627 42.9699 19.2285 43.695 19.7301C43.5337 20.079 43.4402 20.4665 43.4402 20.8759C43.4402 21.3715 43.5744 21.8353 43.805 22.2363C43.3995 22.5808 41.926 23.8536 40.3183 25.4791C26.0436 26.0071 13.0516 27.4022 13.0516 27.4022C9.34258 27.8237 10.4596 28.8759 10.4596 28.8759C14.9179 28.2528 27.0189 27.9861 38.131 27.8758C36.671 29.6759 36.4517 30.6306 36.9823 30.9857C37.6094 31.4041 39.6927 29.3216 41.1617 27.8494C45.4474 27.8169 49.4549 27.8056 52.6552 27.8033C54.1544 29.0399 55.9166 30.3972 56.4246 29.9871C56.8339 29.6562 56.7005 28.9658 55.7364 27.8041C57.5002 27.8056 58.7905 27.8101 59.4335 27.8124C59.1109 28.8858 58.9533 30.0392 59.0257 31.2251C59.0686 31.9125 59.196 32.6067 59.4063 33.2835C59.6241 33.958 59.9271 34.6121 60.3048 35.2179C60.6733 35.829 61.1391 36.3804 61.6253 36.8737C62.1009 37.3654 62.6481 37.8005 63.2194 38.2001C63.8005 38.5914 64.4276 38.9207 65.0826 39.1873C65.7383 39.4509 66.4287 39.6315 67.1237 39.7387C68.5173 39.9585 69.9373 39.8324 71.2383 39.4434C72.5399 39.0499 73.7338 38.3927 74.7227 37.5255C75.2149 37.0897 75.6596 36.6063 76.0251 36.0715C76.3914 35.539 76.6854 34.9581 76.8414 34.35C75.9272 35.2006 74.927 35.786 73.8883 36.218C72.852 36.6448 71.7855 36.9197 70.7333 37.0089Z" fill="white"/>
<path d="M65.7084 25.7186H64.4482L62.6106 27.8147H64.4482L65.7084 25.7186Z" fill="white"/>
<path d="M68.4392 27.4027V25.719H66.0974L65.0784 27.4027H68.4392Z" fill="white"/>
<path d="M74.741 27.8147L72.9034 25.7186H71.6439L72.9034 27.8147H74.741Z" fill="white"/>
<path d="M68.9128 27.4027H72.2737L71.2554 25.719H68.9128V27.4027Z" fill="white"/>
<path d="M68.8594 0.18647H68.4388L67.8087 20.8765H69.4895L68.8594 0.18647Z" fill="white"/>
<path d="M87.9867 24.8606C88.7826 24.023 89.4504 23.2752 89.666 23.0334C90.1288 23.3953 90.7091 23.6136 91.34 23.6136C91.802 23.6136 92.2369 23.4965 92.6191 23.2933C92.7947 23.5312 93.2808 24.1861 93.8853 24.9581C91.9174 24.9045 89.9419 24.8697 87.9867 24.8606ZM93.4406 20.8761C93.4406 22.0371 92.4985 22.9813 91.34 22.9813C90.1823 22.9813 89.2394 22.0371 89.2394 20.8761C89.2394 19.7152 90.1823 18.771 91.34 18.771C92.4985 18.771 93.4406 19.7152 93.4406 20.8761ZM124.245 26.9817C124.245 26.9817 111.123 25.5722 96.7645 25.0495C95.3295 23.6332 94.076 22.55 93.7074 22.2358C93.9381 21.8354 94.0715 21.3717 94.0715 20.8761C94.0715 20.4667 93.978 20.0792 93.8167 19.7303C94.5418 19.2287 96.7555 17.6628 98.8584 15.7979C101.42 13.528 101.97 12.3157 101.386 11.8307C100.804 11.3458 98.4943 13.2198 96.8791 14.5311C95.5013 15.6491 93.3909 17.9189 92.797 18.5655C92.3741 18.2973 91.8759 18.1395 91.34 18.1395C90.9232 18.1395 90.529 18.2362 90.1748 18.4046C89.6931 17.7535 87.7847 15.2079 86.5086 13.9291C85.0381 12.4554 82.9375 10.3502 82.3074 10.771C81.6773 11.1925 82.0979 12.4554 84.408 14.9813C86.3187 17.0706 88.3718 18.8699 89.0253 19.4311C88.763 19.8511 88.6093 20.3451 88.6093 20.8761C88.6093 21.2062 88.6711 21.5212 88.7781 21.8143C88.6379 21.9117 86.8327 23.1732 84.8301 24.8682C82.0783 24.8961 79.4026 24.9807 76.8942 25.1409L77.4044 27.3941C77.4044 27.3941 79.2104 27.3843 82.1446 27.382C80.8512 28.8013 80.6311 29.6179 81.0879 29.9873C81.6539 30.4442 83.7809 28.7039 85.3637 27.3828C88.3854 27.3858 92.047 27.3979 95.9452 27.4266C96.0772 27.5701 96.2053 27.7053 96.3274 27.8277C97.7987 29.3006 99.8993 31.4066 100.529 30.9851C101.1 30.6044 100.804 29.5288 99.028 27.4538C110.178 27.5633 122.36 27.8292 126.838 28.4554C126.838 28.4554 127.955 27.4024 124.245 26.9817Z" fill="white"/>
<path d="M44.2808 20.6656C44.2808 21.3636 44.8453 21.9286 45.541 21.9286C46.2374 21.9286 46.802 21.3636 46.802 20.6656C46.802 19.9684 46.2374 19.4027 45.541 19.4027C44.8453 19.4027 44.2808 19.9684 44.2808 20.6656Z" fill="white"/>
<path d="M48.2721 30.5605C45.9612 30.9813 45.5406 29.5703 45.5406 29.5703C46.1715 32.1596 48.0618 31.6135 48.0618 31.6135C48.0618 31.6135 49.1125 32.6657 51.4227 33.0864C53.7336 33.5079 53.8497 31.0402 53.8497 31.0402L51.0255 29.5703C51.0255 29.5703 50.5823 30.1391 48.2721 30.5605Z" fill="white"/>
<path d="M91.9707 21.929C92.6664 21.929 93.2309 21.3632 93.2309 20.666C93.2309 19.968 92.6664 19.403 91.9707 19.403C91.2743 19.403 90.7097 19.968 90.7097 20.666C90.7097 21.3632 91.2743 21.929 91.9707 21.929Z" fill="white"/>
<path d="M89.2393 30.5605C86.9291 30.1391 86.4867 29.5703 86.4867 29.5703L83.6617 31.0402C83.6617 31.0402 83.7778 33.5079 86.088 33.0864C88.3996 32.6657 89.4496 31.6135 89.4496 31.6135C89.4496 31.6135 91.3399 32.1596 91.9708 29.5703C91.9708 29.5703 91.5502 30.9813 89.2393 30.5605Z" fill="white"/>
<g opacity="0.979996">
<g opacity="0.979996">
<path opacity="0.979996" d="M9.39152 63.5661C10.5274 63.5661 11.4725 63.3501 12.227 62.9165C12.9815 62.4829 13.583 61.9141 14.0322 61.2094C14.4814 60.5039 14.795 59.7017 14.9728 58.8006C15.1515 57.9009 15.2404 56.9915 15.2404 56.0745V46.9512H17.0199V56.0745C17.0199 57.2974 16.8843 58.4569 16.6129 59.5529C16.3423 60.6489 15.9052 61.6127 15.3037 62.4452C14.7015 63.2776 13.9176 63.94 12.9521 64.4325C11.9851 64.9258 10.807 65.172 9.41715 65.172C7.99337 65.172 6.79344 64.9129 5.81888 64.3947C4.84432 63.8766 4.06044 63.193 3.46726 62.3432C2.87333 61.4942 2.44974 60.5258 2.19498 59.4381C1.94098 58.3511 1.8136 57.2294 1.8136 56.0745V46.9512H3.56826V56.0745C3.56826 57.0262 3.66097 57.9515 3.84865 58.8519C4.03482 59.7523 4.35213 60.5507 4.80135 61.2479C5.25057 61.9444 5.84827 62.5048 6.59446 62.9293C7.33989 63.3546 8.273 63.5661 9.39152 63.5661Z" fill="white"/>
</g>
</g>
<g opacity="0.979996">
<g opacity="0.979996">
<path opacity="0.979996" d="M21.2662 65.0444V46.9763H23.0458V57.4757L32.9889 46.9513H34.9463L27.5719 54.9015L35.3277 65.0444H33.3703L26.4534 55.9469L23.0458 59.4895V65.0444H21.2662Z" fill="white"/>
</g>
</g>
<g opacity="0.979996">
<g opacity="0.979996">
<path opacity="0.979996" d="M39.397 56.7878H45.2963C45.8209 56.7878 46.3003 56.6729 46.7329 56.4433C47.1656 56.2144 47.5341 55.9047 47.8386 55.5135C48.1439 55.1229 48.3813 54.6811 48.5517 54.1886C48.7205 53.6953 48.8049 53.1779 48.8049 52.634C48.8049 52.0902 48.7077 51.5682 48.5132 51.0667C48.318 50.5659 48.055 50.1285 47.7248 49.7539C47.394 49.3807 47.0043 49.0831 46.5551 48.8626C46.1051 48.642 45.6348 48.531 45.1433 48.531H39.397V56.7878ZM37.6174 65.0446V46.9515H45.2458C46.0252 46.9515 46.7412 47.1162 47.394 47.4478C48.0467 47.7794 48.6105 48.2122 49.0853 48.747C49.5594 49.2825 49.9287 49.8906 50.191 50.5697C50.4541 51.2495 50.586 51.9376 50.586 52.634C50.586 53.2965 50.488 53.9295 50.2928 54.5323C50.0976 55.135 49.8262 55.6789 49.4795 56.1631C49.1313 56.6473 48.7115 57.0551 48.2208 57.3868C47.7286 57.7176 47.1776 57.9427 46.5679 58.062L50.9922 65.0446H48.9836L44.7371 58.368H39.397V65.0446H37.6174Z" fill="white"/>
</g>
</g>
<g opacity="0.979996">
<g opacity="0.979996">
<path opacity="0.979996" d="M64.19 57.9857L60.5541 49.0408L56.8669 57.9857H64.19ZM59.8162 46.9515H61.3161L68.8179 65.0446H66.9366L64.5971 59.3869H56.4847L54.1716 65.0446H52.2646L59.8162 46.9515Z" fill="white"/>
</g>
</g>
<g opacity="0.979996">
<path opacity="0.979996" d="M71.4109 46.9513H73.1904V65.0444H71.4109V46.9513Z" fill="white"/>
</g>
<g opacity="0.979996">
<g opacity="0.979996">
<path opacity="0.979996" d="M79.4967 50.264V65.0441H77.7172V46.951H79.0897L91.0407 62.0121V46.9759H92.821V65.0441H91.2699L79.4967 50.264Z" fill="white"/>
</g>
</g>
<g opacity="0.979996">
<path opacity="0.979996" d="M97.3473 46.9513H99.1269V65.0444H97.3473V46.9513Z" fill="white"/>
</g>
<g opacity="0.979996">
<g opacity="0.979996">
<path opacity="0.979996" d="M113.621 57.9857L109.985 49.0408L106.298 57.9857H113.621ZM109.247 46.9515H110.747L118.249 65.0446H116.368L114.028 59.3869H105.916L103.603 65.0446H101.696L109.247 46.9515Z" fill="white"/>
</g>
</g>
<g opacity="0.979996">
<g opacity="0.979996">
<path opacity="0.979996" d="M122.622 50.264V65.0441H120.843V46.951H122.215L134.166 62.0121V46.9759H135.947V65.0441H134.396L122.622 50.264Z" fill="white"/>
</g>
</g>
<g opacity="0.979996">
<g opacity="0.979996">
<path opacity="0.979996" d="M7.61561 75.5819L5.29339 69.8699L2.93952 75.5819H7.61561ZM4.82307 68.5359H5.78029L10.571 80.0898H9.36876L7.87564 76.4777H2.69606L1.21801 80.0898H0L4.82307 68.5359Z" fill="white"/>
</g>
</g>
<g opacity="0.979996">
<g opacity="0.979996">
<path opacity="0.979996" d="M19.9716 79.0797V80.0889H12.2263V68.5349H19.8253V69.5441H13.3629V73.7099H18.997V74.6699H13.3629V79.0797H19.9716Z" fill="white"/>
</g>
</g>
<g opacity="0.979996">
<g opacity="0.979996">
<path opacity="0.979996" d="M23.2524 74.8169H27.0187C27.3541 74.8169 27.6609 74.7428 27.9367 74.597C28.2126 74.4505 28.4485 74.2526 28.6422 74.0033C28.8374 73.7533 28.9889 73.4716 29.0975 73.1566C29.2053 72.8424 29.2603 72.5115 29.2603 72.164C29.2603 71.8166 29.1977 71.4835 29.0734 71.1632C28.949 70.8429 28.7809 70.5642 28.5699 70.3255C28.3581 70.0868 28.1093 69.8965 27.8222 69.756C27.5365 69.6147 27.235 69.5445 26.9215 69.5445H23.2524V74.8169ZM22.115 80.0885V68.5353H26.9863C27.4845 68.5353 27.942 68.6411 28.3581 68.8526C28.7749 69.0641 29.1352 69.3405 29.4382 69.6827C29.7412 70.0241 29.9771 70.4124 30.1451 70.8459C30.3125 71.2795 30.3969 71.7191 30.3969 72.164C30.3969 72.587 30.3343 72.9912 30.2092 73.3764C30.0849 73.7616 29.9122 74.1091 29.6899 74.418C29.4683 74.727 29.2007 74.9876 28.8864 75.1991C28.5729 75.4106 28.2209 75.5548 27.8305 75.6304L30.6562 80.0885H29.3733L26.6614 75.8253H23.2524V80.0885H22.115Z" fill="white"/>
</g>
</g>
<g opacity="0.979996">
<path opacity="0.979996" d="M32.7184 68.5349H33.8558V80.0889H32.7184V68.5349Z" fill="white"/>
</g>
<g opacity="0.979996">
<g opacity="0.979996">
<path opacity="0.979996" d="M43.1106 75.581L40.7884 69.869L38.4345 75.581H43.1106ZM40.3181 68.5351H41.2753L46.0659 80.089H44.8638L43.3706 76.4769H38.1911L36.713 80.089H35.495L40.3181 68.5351Z" fill="white"/>
</g>
</g>
<g opacity="0.979996">
<g opacity="0.979996">
<path opacity="0.979996" d="M47.7213 80.0889V68.5349H48.8587V79.0797H55.5156V80.0889H47.7213Z" fill="white"/>
</g>
</g>
<g opacity="0.979996">
<g opacity="0.979996">
<path opacity="0.979996" d="M61.2796 68.5349L65.4039 78.6733L69.5125 68.5349H70.6973L65.8908 80.0889H64.9012L60.0947 68.5349H61.2796Z" fill="white"/>
</g>
</g>
<g opacity="0.979996">
<g opacity="0.979996">
<path opacity="0.979996" d="M80.098 79.0797V80.0889H72.3528V68.5349H79.9518V69.5441H73.4894V73.7099H79.1234V74.6699H73.4894V79.0797H80.098Z" fill="white"/>
</g>
</g>
<g opacity="0.979996">
<g opacity="0.979996">
<path opacity="0.979996" d="M91.3349 68.5349V80.0889H90.2149V74.6866H83.3787V80.0889H82.2421V68.5349H83.3787V73.6774H90.2149V68.5349H91.3349Z" fill="white"/>
</g>
</g>
<g opacity="0.979996">
<path opacity="0.979996" d="M94.2249 68.5349H95.3622V80.0889H94.2249V68.5349Z" fill="white"/>
</g>
<g opacity="0.979996">
<g opacity="0.979996">
<path opacity="0.979996" d="M97.4885 74.2304C97.4885 73.5362 97.6099 72.8451 97.8533 72.1562C98.0975 71.4673 98.451 70.8517 98.9176 70.3094C99.3826 69.767 99.9562 69.3244 100.638 68.9829C101.32 68.6415 102.094 68.4701 102.961 68.4701C103.989 68.4701 104.868 68.7042 105.599 69.1703C106.329 69.6363 106.868 70.2444 107.214 70.9922L106.321 71.5459C106.137 71.1659 105.913 70.8464 105.648 70.5858C105.382 70.3252 105.098 70.1137 104.795 69.9513C104.492 69.7882 104.178 69.6718 103.853 69.6008C103.529 69.5306 103.209 69.4951 102.895 69.4951C102.202 69.4951 101.59 69.6363 101.06 69.9188C100.53 70.2006 100.083 70.5692 99.721 71.0254C99.3578 71.4802 99.0849 71.993 98.901 72.5626C98.7163 73.1321 98.6251 73.71 98.6251 74.2961C98.6251 74.9367 98.7352 75.5485 98.9575 76.1347C99.1791 76.7208 99.4829 77.2382 99.8665 77.6884C100.251 78.1394 100.706 78.4967 101.231 78.7626C101.755 79.0292 102.327 79.1614 102.944 79.1614C103.269 79.1614 103.601 79.1206 103.943 79.039C104.284 78.9582 104.613 78.8275 104.933 78.6492C105.253 78.4695 105.547 78.2474 105.818 77.9815C106.088 77.7156 106.316 77.3931 106.5 77.0139L107.441 77.5011C107.257 77.9354 106.997 78.3176 106.662 78.6492C106.327 78.9793 105.953 79.2588 105.542 79.4869C105.13 79.7151 104.695 79.888 104.234 80.0074C103.775 80.1267 103.322 80.1864 102.878 80.1864C102.089 80.1864 101.363 80.0127 100.703 79.6652C100.043 79.3185 99.4746 78.866 98.9982 78.3063C98.5219 77.7481 98.151 77.1136 97.8857 76.4028C97.6204 75.6928 97.4885 74.9692 97.4885 74.2304Z" fill="white"/>
</g>
</g>
<g opacity="0.979996">
<g opacity="0.979996">
<path opacity="0.979996" d="M109.389 80.0889V68.5349H110.527V79.0797H117.184V80.0889H109.389Z" fill="white"/>
</g>
</g>
<g opacity="0.979996">
<g opacity="0.979996">
<path opacity="0.979996" d="M126.602 79.0797V80.0889H118.856V68.5349H126.455V69.5441H119.993V73.7099H125.627V74.6699H119.993V79.0797H126.602Z" fill="white"/>
</g>
</g>
<g opacity="0.979996">
<g opacity="0.979996">
<path opacity="0.979996" d="M135.483 70.6992C135.158 70.3314 134.725 70.0322 134.183 69.8041C133.643 69.5768 133.026 69.4627 132.333 69.4627C131.315 69.4627 130.574 69.6553 130.108 70.0406C129.643 70.4258 129.41 70.9492 129.41 71.6109C129.41 71.9584 129.472 72.2432 129.596 72.4653C129.721 72.6881 129.914 72.8799 130.174 73.0431C130.434 73.2055 130.766 73.3468 131.172 73.4661C131.578 73.5854 132.057 73.7048 132.609 73.8241C133.226 73.9541 133.78 74.1006 134.274 74.2638C134.766 74.4262 135.185 74.6294 135.531 74.8733C135.878 75.1181 136.143 75.4134 136.327 75.7601C136.511 76.1076 136.603 76.5412 136.603 77.0624C136.603 77.5941 136.5 78.0549 136.295 78.4454C136.09 78.8352 135.802 79.1615 135.435 79.4221C135.066 79.6827 134.627 79.8746 134.119 79.9999C133.611 80.1246 133.052 80.1865 132.447 80.1865C130.66 80.1865 129.118 79.6276 127.819 78.5104L128.387 77.5828C128.592 77.7996 128.84 78.0058 129.126 78.2014C129.412 78.3963 129.732 78.567 130.084 78.7136C130.436 78.8601 130.812 78.9742 131.212 79.0558C131.612 79.1366 132.035 79.1781 132.479 79.1781C133.399 79.1781 134.116 79.0127 134.63 78.6811C135.144 78.3502 135.402 77.8487 135.402 77.1757C135.402 76.8184 135.329 76.517 135.183 76.273C135.037 76.029 134.817 75.8168 134.525 75.6385C134.233 75.4595 133.87 75.3046 133.437 75.1747C133.004 75.044 132.5 74.9141 131.927 74.7834C131.321 74.643 130.79 74.4964 130.336 74.3446C129.881 74.1928 129.497 74.0032 129.183 73.775C128.869 73.5477 128.633 73.2735 128.476 72.9532C128.319 72.6337 128.241 72.2402 128.241 71.7733C128.241 71.2423 128.341 70.7672 128.542 70.3495C128.742 69.9318 129.026 69.5843 129.394 69.3079C129.762 69.0314 130.195 68.8199 130.694 68.6734C131.191 68.5268 131.743 68.4535 132.35 68.4535C133.118 68.4535 133.803 68.5706 134.403 68.8033C135.003 69.0374 135.548 69.3645 136.035 69.7883L135.483 70.6992Z" fill="white"/>
</g>
</g>
</svg>
